<?xml version="1.0" standalone="no"?>
<!DOCTYPE svg PUBLIC "-//W3C//DTD SVG 20010904//EN"
 "http://www.w3.org/TR/2001/REC-SVG-20010904/DTD/svg10.dtd">
<svg version="1.0" xmlns="http://www.w3.org/2000/svg"
 width="178.000000pt" height="178.000000pt" viewBox="0 0 178.000000 178.000000"
 preserveAspectRatio="xMidYMid meet">

<g transform="translate(0.000000,178.000000) scale(0.100000,-0.100000)"
fill="#000000" stroke="none">
<path d="M720 1645 c-11 -13 -9 -23 8 -58 21 -43 34 -87 26 -87 -3 0 -10 13
-15 29 -13 36 -36 47 -59 26 -16 -15 -18 -13 -23 15 -7 35 -30 48 -52 30 -10
-8 -15 -31 -15 -66 0 -30 -2 -54 -5 -54 -3 0 -23 12 -45 26 -70 47 -112 6 -49
-49 19 -16 27 -25 19 -21 -8 4 -23 14 -32 21 -23 20 -105 20 -125 0 -24 -23
-9 -47 29 -47 21 0 47 -11 71 -29 l38 -29 -50 1 c-36 2 -55 -3 -67 -15 -23
-23 -4 -47 37 -46 16 1 32 -2 36 -5 3 -4 -12 -7 -35 -7 -22 0 -47 -3 -56 -6
-20 -8 -21 -43 -1 -50 12 -5 7 -14 -22 -39 -29 -26 -35 -36 -26 -45 13 -14 83
-5 83 10 0 6 5 10 11 10 7 0 8 -16 3 -45 -9 -64 1 -97 29 -93 15 2 23 11 25
28 8 55 19 37 26 -39 3 -44 9 -87 12 -96 5 -11 -1 -15 -19 -15 -55 0 -76 -52
-59 -143 13 -68 50 -131 92 -155 20 -11 31 -28 35 -51 10 -55 43 -111 96 -162
l49 -48 -28 -19 c-15 -11 -57 -26 -92 -32 -75 -15 -106 -29 -137 -62 -29 -31
-41 -78 -19 -78 9 0 16 8 16 18 0 19 26 62 38 62 4 0 6 -26 4 -58 l-4 -59 59
-26 c211 -94 425 -108 622 -40 151 51 171 70 158 150 -6 34 -6 35 13 18 10 -9
22 -30 25 -45 4 -19 11 -27 20 -24 21 9 0 65 -36 96 -20 17 -54 31 -88 38 -31
6 -67 13 -81 16 -14 3 -36 14 -49 25 l-24 19 51 49 c54 52 86 106 97 163 5 26
13 38 29 42 48 12 105 125 106 209 0 38 -5 53 -26 73 -16 17 -32 24 -45 21
-17 -5 -20 -2 -15 17 3 12 8 47 12 79 6 52 24 72 24 26 0 -21 27 -37 39 -23
22 24 20 73 -4 108 -28 42 -28 43 19 15 41 -24 79 -22 84 4 3 16 -32 56 -51
57 -4 0 -20 11 -35 25 -15 14 -32 25 -38 25 -7 0 -14 7 -18 15 -12 32 55 10
86 -28 14 -18 19 -19 32 -8 45 38 -1 102 -98 135 l-68 23 29 12 c17 7 52 11
79 9 44 -3 49 -1 52 19 2 16 -6 28 -30 43 -39 24 -92 26 -141 5 -49 -20 -54
-19 -31 8 29 33 52 80 47 95 -6 17 -38 15 -53 -3 -7 -8 -26 -21 -42 -30 l-30
-14 16 24 c9 13 16 42 16 63 0 66 -51 85 -63 24 -3 -16 -26 -51 -52 -78 -44
-47 -45 -48 -39 -19 4 17 10 35 15 40 4 6 11 30 15 53 6 37 4 42 -13 42 -32 0
-72 -54 -104 -138 -12 -32 -13 -33 -30 -15 -13 13 -20 36 -21 77 -2 42 -8 62
-20 69 -24 15 -48 -8 -48 -47 l0 -31 -26 33 c-35 44 -58 56 -74 37z m-40 -147
c0 -19 -2 -20 -10 -8 -13 19 -13 30 0 30 6 0 10 -10 10 -22z m-5 -668 c0 -36
-2 -40 -27 -40 -14 0 -28 6 -31 13 -7 18 11 47 36 57 12 5 22 9 22 9 1 1 1
-17 0 -39z m45 19 c0 -5 -7 -9 -15 -9 -15 0 -20 12 -9 23 8 8 24 -1 24 -14z
m82 -22 c8 -16 7 -23 -8 -34 -26 -19 -48 -17 -38 5 4 9 7 27 7 39 -1 26 22 21
39 -10z m221 14 c-3 -10 0 -28 6 -40 10 -18 9 -21 -7 -21 -10 0 -26 6 -36 13
-16 12 -16 14 4 40 25 31 40 35 33 8z m47 9 c0 -5 -4 -10 -10 -10 -5 0 -10 5
-10 10 0 6 5 10 10 10 6 0 10 -4 10 -10z m69 0 c42 -22 31 -70 -16 -70 -21 0
-22 2 -12 21 6 12 9 30 6 40 -6 22 -3 23 22 9z m-234 -288 c94 9 193 -7 173
-27 -11 -11 -222 -18 -301 -11 -123 12 -88 50 38 41 39 -3 79 -4 90 -3z m94
-85 c-30 -28 -35 -29 -115 -25 -73 3 -87 6 -109 28 l-25 25 141 0 140 0 -32
-28z m-184 -107 c19 0 37 5 40 10 3 6 19 10 36 10 16 0 29 -4 29 -10 0 -21 70
-10 95 14 l25 25 6 -24 c9 -38 -12 -63 -68 -80 -64 -19 -111 -19 -172 -1 -60
18 -86 41 -86 76 0 40 9 42 37 9 18 -21 33 -29 58 -29z m-78 -155 c27 -28 80
-102 56 -80 -45 42 -113 132 -113 149 1 17 3 15 14 -9 7 -17 27 -44 43 -60z
m346 36 c-28 -43 -103 -125 -103 -113 0 7 22 36 49 66 27 30 52 65 57 78 4 13
9 17 11 10 3 -7 -4 -25 -14 -41z m-367 -52 c32 -34 31 -49 -2 -18 -28 26 -54
70 -54 91 0 7 7 0 16 -17 8 -16 26 -41 40 -56z m398 59 c-10 -32 -44 -76 -73
-95 -18 -11 -14 -3 15 29 23 25 45 55 49 67 3 11 9 21 11 21 3 0 2 -10 -2 -22z
m-294 -173 c0 -8 -4 -15 -9 -15 -13 0 -22 16 -14 24 11 11 23 6 23 -9z"/>
</g>
</svg>
